<svg xmlns="http://www.w3.org/2000/svg" version="1.1" xmlns:xlink="http://www.w3.org/1999/xlink"
    xmlns:svgjs="http://svgjs.com/svgjs" width="600" height="700" preserveAspectRatio="none" viewBox="0 0 600 700">
    <g mask="url(&quot;#SvgjsMask1033&quot;)" fill="none">
        <rect width="600" height="700" x="0" y="0" fill="#ffffff"></rect>
        <path
            d="M333.304,753.42C380.707,752.999,424.692,727.891,447.92,686.567C470.703,646.035,467.001,596.892,444.001,556.483C420.732,515.602,380.341,484.773,333.304,485.198C286.893,485.617,249.331,518.32,226.015,558.451C202.568,598.807,192.608,647.742,215.11,688.633C238.326,730.821,285.152,753.847,333.304,753.42"
            fill="rgba(254, 170, 0, 0.76)" class="triangle-float3"></path>
        <path
            d="M581.6558503092517 337.8750989074713L507.15220770971064 417.7704740140812 661.5512254158616 412.37874150701236z"
            fill="rgba(254, 170, 0, 0.76)" class="triangle-float1"></path>
        <path
            d="M590.867,664.351C633.229,661.622,669.363,637.05,691.142,600.612C713.587,563.06,722.585,517.163,701.873,478.629C680.151,438.217,636.716,412.374,590.867,414.056C547.476,415.648,516.11,449.45,493.127,486.288C468.199,526.243,442.741,573.872,465.402,615.156C488.57,657.363,542.82,667.447,590.867,664.351"
            fill="rgba(254, 170, 0, 0.76)" class="triangle-float1"></path>
        <path d="M169.82 679.7 a134.59 134.59 0 1 0 269.18 0 a134.59 134.59 0 1 0 -269.18 0z"
            fill="rgba(254, 170, 0, 0.76)" class="triangle-float1"></path>
        <path
            d="M171.7510967445808 499.4610672733784L81.09341674191994 435.9818763389116 17.61422580745318 526.6395563415725 108.27190581011405 590.1187472760392z"
            fill="rgba(254, 170, 0, 0.76)" class="triangle-float2"></path>
        <path d="M-67.53 244.11 a125.8 125.8 0 1 0 251.6 0 a125.8 125.8 0 1 0 -251.6 0z" fill="rgba(254, 170, 0, 0.76)"
            class="triangle-float3"></path>
        <path
            d="M505.5197246781081 298.7453316659862L520.1086577198886 206.63443357595168 427.99775962985404 192.04550053417114 413.40882658807357 284.15639862420574z"
            fill="rgba(254, 170, 0, 0.76)" class="triangle-float3"></path>
        <path d="M90.1 151.79 a125.29 125.29 0 1 0 250.58 0 a125.29 125.29 0 1 0 -250.58 0z"
            fill="rgba(254, 170, 0, 0.76)" class="triangle-float2"></path>
        <path
            d="M140.0538013408376 279.5704770565752L249.48783829173732 187.7444170128344 157.6617782479965 78.31038006193467 48.22774129709677 170.1364401056755z"
            fill="rgba(254, 170, 0, 0.76)" class="triangle-float2"></path>
        <path
            d="M593.5577139925065 528.1254200684043L660.5537403610037 396.6383148904914 462.0706088145936 461.1293936999071z"
            fill="rgba(254, 170, 0, 0.76)" class="triangle-float2"></path>
    </g>
    <defs>
        <mask id="SvgjsMask1033">
            <rect width="600" height="700" fill="#ffffff"></rect>
        </mask>
        <style>
            @keyframes float1 {
                0% {
                    transform: translate(0, 0)
                }

                50% {
                    transform: translate(-10px, 0)
                }

                100% {
                    transform: translate(0, 0)
                }
            }

            .triangle-float1 {
                animation: float1 5s infinite;
            }

            @keyframes float2 {
                0% {
                    transform: translate(0, 0)
                }

                50% {
                    transform: translate(-5px, -5px)
                }

                100% {
                    transform: translate(0, 0)
                }
            }

            .triangle-float2 {
                animation: float2 4s infinite;
            }

            @keyframes float3 {
                0% {
                    transform: translate(0, 0)
                }

                50% {
                    transform: translate(0, -10px)
                }

                100% {
                    transform: translate(0, 0)
                }
            }

            .triangle-float3 {
                animation: float3 6s infinite;
            }
        </style>
    </defs>
</svg>